Coordinates
version=1
nRows=12
nColumns=24
inDegrees=yes

Units are S.I. units (second, meters, Newtons, ...)
Angles are in degrees.

endheader
time	pelvis_tilt	pelvis_list	pelvis_rotation	pelvis_tx	pelvis_ty	pelvis_tz	hip_flexion_r	hip_adduction_r	hip_rotation_r	knee_angle_r	ankle_angle_r	subtalar_angle_r	mtp_angle_r	hip_flexion_l	hip_adduction_l	hip_rotation_l	knee_angle_l	ankle_angle_l	subtalar_angle_l	mtp_angle_l	lumbar_extension	lumbar_bending	lumbar_rotation
      1.02900000	     -0.98536929	     -0.73622570	     -3.76849682	     -0.19210012	      0.97036477	      0.32902556	    -11.92424266	      3.56572017	     -5.79257572	    -10.73817770	     17.50088489	      2.08303708	      4.40792570	     24.58312783	     -0.03152493	     -4.73320894	     -0.88614938	      0.88408077	     -2.78918181	     -0.75677752	     -1.71233183	      3.53277938	      7.49718703
      1.03316667	     -1.01127789	     -0.66521467	     -3.83590459	     -0.18626123	      0.96972981	      0.32871028	    -11.94640728	      3.38810881	     -5.85152262	    -11.35398200	     17.65598690	      2.29502327	      4.35512874	     24.53329304	      0.09093825	     -4.78603157	     -0.81193340	      0.62153946	     -3.10412962	     -0.68636741	     -1.66140557	      3.46033524	      7.60104633
      1.03733333	     -1.03640535	     -0.55773693	     -3.89392042	     -0.18040236	      0.96918771	      0.32839726	    -11.97337225	      3.18011241	     -5.85110054	    -11.95070094	     17.69695642	      2.34276169	      4.31217838	     24.48631603	      0.24238133	     -4.84118374	     -0.83266485	      0.32088563	     -3.42114222	     -0.62304424	     -1.60246064	      3.32531557	      7.60316149
      1.04150000	     -1.06284781	     -0.44201892	     -3.94429425	     -0.17448205	      0.96869958	      0.32810071	    -12.00352437	      2.97239305	     -5.79735860	    -12.53485875	     17.65471599	      2.28196974	      4.29646314	     24.47413699	      0.40349931	     -4.99577231	     -0.99107581	      0.05132839	     -3.60752682	     -0.59578568	     -1.53287269	      3.17263236	      7.59429975
      1.04566667	     -1.10924292	     -0.34493212	     -3.98040786	     -0.16860309	      0.96820399	      0.32775110	    -11.96394981	      2.77810029	     -5.79058837	    -13.21812188	     17.69553532	      2.29904044	      4.27967577	     24.49761181	      0.55330247	     -5.03318438	     -1.22512231	     -0.31414673	     -4.01015071	     -0.51862478	     -1.45012027	      3.06517659	      7.62473291
      1.04983333	     -1.13243988	     -0.21697927	     -4.01281213	     -0.16264989	      0.96780487	      0.32741434	    -11.95449790	      2.55600188	     -5.74076327	    -13.88276431	     17.58860703	      2.20339172	      4.27512360	     24.51040892	      0.72916637	     -5.13094351	     -1.54715423	     -0.64984986	     -4.25333959	     -0.48087588	     -1.38170768	      2.89542699	      7.60838754
      1.05400000	     -1.19878507	     -0.11958259	     -4.02350995	     -0.15674193	      0.96737685	      0.32702448	    -11.85910408	      2.36943984	     -5.71214304	    -14.62757100	     17.56342131	      2.15815764	      4.29065807	     24.58303050	      0.88501695	     -5.07597138	     -1.93249750	     -1.10368456	     -4.77624901	     -0.37078328	     -1.27487102	      2.79422152	      7.61852873
      1.05816667	     -1.23770252	      0.02026040	     -4.03524725	     -0.15073470	      0.96705244	      0.32665045	    -11.79245653	      2.13748000	     -5.66359101	    -15.36718399	     17.38473854	      2.01484700	      4.30438103	     24.63591186	      1.07525634	     -5.11986167	     -2.38798523	     -1.50935693	     -5.07005172	     -0.31127147	     -1.18165630	      2.61248539	      7.59464894
      1.06233333	     -1.31496585	      0.11364715	     -4.02209339	     -0.14479702	      0.96669916	      0.32622558	    -11.64477814	      1.96272869	     -5.61570666	    -16.18275974	     17.26684692	      1.89644792	      4.36728467	     24.74348832	      1.23185911	     -4.99186072	     -2.89622865	     -2.01052790	     -5.64488688	     -0.16101826	     -1.05247884	      2.51039609	      7.58123039
      1.06650000	     -1.36358991	      0.23999078	     -4.00191406	     -0.13878868	      0.96643610	      0.32578285	    -11.51466021	      1.74916414	     -5.58082282	    -17.01971460	     17.04299125	      1.72006428	      4.48544927	     24.81885482	      1.42489124	     -4.88194067	     -3.43596159	     -2.49322491	     -6.15319747	      0.05737194	     -0.95093941	      2.35598082	      7.54750123
      1.07066667	     -1.42342824	      0.35966704	     -3.97077113	     -0.13276093	      0.96621021	      0.32533867	    -11.35464022	      1.55012435	     -5.52730178	    -17.88508795	     16.79062423	      1.52565789	      4.60259547	     24.92858727	      1.60736302	     -4.80850157	     -4.04410388	     -3.01643129	     -6.57127256	      0.22754110	     -0.82290926	      2.19960946	      7.50587594
      1.07483333	     -1.45668239	      0.50029151	     -3.91742266	     -0.12668402	      0.96605430	      0.32483559	    -11.20256516	      1.32185418	     -5.52510165	    -18.77967377	     16.42136243	      1.32368825	      6.81751239	     25.00352774	      1.82493208	     -4.68772139	     -4.65852245	     -3.57510536	     -7.06373993	      2.86146971	     -0.73511794	      2.02863573	      7.44322455
